<svg width="12" height="20" viewBox="0 0 12 20" fill="none" xmlns="http://www.w3.org/2000/svg">
<path d="M0.125 10.2441C0.125 10.0579 0.157227 9.88607 0.22168 9.72852C0.293294 9.57096 0.400716 9.42057 0.543945 9.27734L8.91211 1.0918C9.1556 0.855469 9.44922 0.737305 9.79297 0.737305C10.0293 0.737305 10.2406 0.794596 10.4268 0.90918C10.6201 1.0166 10.7741 1.16341 10.8887 1.34961C11.0033 1.53581 11.0605 1.74707 11.0605 1.9834C11.0605 2.31999 10.9281 2.62077 10.6631 2.88574L3.12207 10.2441L10.6631 17.6025C10.9281 17.8675 11.0605 18.1719 11.0605 18.5156C11.0605 18.7448 11.0033 18.9525 10.8887 19.1387C10.7741 19.332 10.6201 19.4824 10.4268 19.5898C10.2406 19.7044 10.0293 19.7617 9.79297 19.7617C9.44922 19.7617 9.1556 19.64 8.91211 19.3965L0.543945 11.2109C0.400716 11.0677 0.293294 10.9173 0.22168 10.7598C0.157227 10.6022 0.125 10.4303 0.125 10.2441Z" fill="black" fill-opacity="0.6"/>
</svg>
