<svg width="40" height="40" viewBox="0 0 40 40" fill="none" xmlns="http://www.w3.org/2000/svg">
<path fill-rule="evenodd" clip-rule="evenodd" d="M20 0C18.8954 0 18 0.895431 18 2V15.4553L9.13052 6.58584C8.34947 5.8048 7.08314 5.8048 6.30209 6.58584C5.52105 7.36689 5.52105 8.63322 6.30209 9.41427L14.8878 18H2C0.895431 18 0 18.8954 0 20C0 21.1046 0.895431 22 2 22H15.1719L5.85806 31.3138C5.07701 32.0949 5.07701 33.3612 5.85806 34.1422C6.63911 34.9233 7.90544 34.9233 8.68649 34.1422L18 24.8287V38C18 39.1046 18.8954 40 20 40C21.1046 40 22 39.1046 22 38V25.1122L31.7579 34.8701C32.539 35.6512 33.8053 35.6512 34.5864 34.8701C35.3674 34.0891 35.3674 32.8227 34.5864 32.0417L24.5447 22H38C39.1046 22 40 21.1046 40 20C40 18.8954 39.1046 18 38 18H24.8287L34.1423 8.6864C34.9234 7.90535 34.9234 6.63902 34.1423 5.85797C33.3613 5.07692 32.095 5.07692 31.3139 5.85797L22 15.1719V2C22 0.895431 21.1046 0 20 0Z" fill="#5D6CF5"/>
</svg>
