<svg width="26" height="25" viewBox="0 0 26 25" fill="none" xmlns="http://www.w3.org/2000/svg">
<path d="M7.29297 24.418C6.88672 24.418 6.57031 24.2812 6.34375 24.0078C6.125 23.7422 6.01562 23.3828 6.01562 22.9297V19.8828H5.45312C4.28906 19.8828 3.30859 19.6758 2.51172 19.2617C1.71484 18.8398 1.10938 18.2305 0.695312 17.4336C0.289062 16.6367 0.0859375 15.6641 0.0859375 14.5156V5.53906C0.0859375 4.39062 0.289062 3.41797 0.695312 2.62109C1.10938 1.82422 1.71484 1.21875 2.51172 0.804688C3.30859 0.382812 4.28906 0.171875 5.45312 0.171875H20.5469C21.7109 0.171875 22.6914 0.382812 23.4883 0.804688C24.2852 1.21875 24.8867 1.82422 25.293 2.62109C25.707 3.41797 25.9141 4.39062 25.9141 5.53906V14.5156C25.9141 15.6641 25.707 16.6367 25.293 17.4336C24.8867 18.2305 24.2852 18.8398 23.4883 19.2617C22.6914 19.6758 21.7109 19.8828 20.5469 19.8828H13.0234L8.98047 23.4805C8.62891 23.793 8.33203 24.0273 8.08984 24.1836C7.84766 24.3398 7.58203 24.418 7.29297 24.418ZM7.77344 22.2734L11.5234 18.5469C11.7422 18.3203 11.9531 18.1719 12.1562 18.1016C12.3594 18.0312 12.625 17.9961 12.9531 17.9961H20.5469C21.7266 17.9961 22.6016 17.7031 23.1719 17.1172C23.7422 16.5234 24.0273 15.6523 24.0273 14.5039V5.53906C24.0273 4.39844 23.7422 3.53516 23.1719 2.94922C22.6016 2.35547 21.7266 2.05859 20.5469 2.05859H5.45312C4.26562 2.05859 3.38672 2.35547 2.81641 2.94922C2.25391 3.53516 1.97266 4.39844 1.97266 5.53906V14.5039C1.97266 15.6523 2.25391 16.5234 2.81641 17.1172C3.38672 17.7031 4.26562 17.9961 5.45312 17.9961H6.89453C7.21484 17.9961 7.44141 18.0625 7.57422 18.1953C7.70703 18.3281 7.77344 18.5547 7.77344 18.875V22.2734ZM7.26953 11.7031C6.80859 11.7031 6.41406 11.5391 6.08594 11.2109C5.75781 10.8828 5.59375 10.4883 5.59375 10.0273C5.59375 9.56641 5.75781 9.17188 6.08594 8.84375C6.41406 8.51562 6.80859 8.35156 7.26953 8.35156C7.73828 8.35156 8.13281 8.51562 8.45312 8.84375C8.78125 9.17188 8.94531 9.56641 8.94531 10.0273C8.94531 10.4883 8.78125 10.8828 8.45312 11.2109C8.13281 11.5391 7.73828 11.7031 7.26953 11.7031ZM13.0117 11.7031C12.543 11.7031 12.1445 11.5391 11.8164 11.2109C11.4883 10.8828 11.3242 10.4883 11.3242 10.0273C11.3242 9.56641 11.4883 9.17188 11.8164 8.84375C12.1445 8.51562 12.543 8.35156 13.0117 8.35156C13.4727 8.35156 13.8672 8.51562 14.1953 8.84375C14.5234 9.17188 14.6875 9.56641 14.6875 10.0273C14.6875 10.4883 14.5234 10.8828 14.1953 11.2109C13.8672 11.5391 13.4727 11.7031 13.0117 11.7031ZM18.7422 11.7031C18.2812 11.7031 17.8867 11.5391 17.5586 11.2109C17.2305 10.8828 17.0664 10.4883 17.0664 10.0273C17.0664 9.56641 17.2305 9.17188 17.5586 8.84375C17.8867 8.51562 18.2812 8.35156 18.7422 8.35156C19.2031 8.35156 19.5977 8.51562 19.9258 8.84375C20.2539 9.17188 20.418 9.56641 20.418 10.0273C20.418 10.4883 20.2539 10.8828 19.9258 11.2109C19.5977 11.5391 19.2031 11.7031 18.7422 11.7031Z" fill="black"/>
</svg>
