<svg width="23" height="23" viewBox="0 0 23 23" fill="none" xmlns="http://www.w3.org/2000/svg">
<path d="M4.38672 22.3438C3.16016 22.3438 2.23828 22.0391 1.62109 21.4297C1.01172 20.8281 0.707031 19.9219 0.707031 18.7109V4.40234C0.707031 3.19141 1.01172 2.28516 1.62109 1.68359C2.23828 1.07422 3.16016 0.769531 4.38672 0.769531H18.6016C19.8281 0.769531 20.7461 1.07422 21.3555 1.68359C21.9727 2.28516 22.2812 3.19141 22.2812 4.40234V18.7109C22.2812 19.9219 21.9727 20.8281 21.3555 21.4297C20.7461 22.0391 19.8281 22.3438 18.6016 22.3438H4.38672ZM4.41016 20.457H18.5781C19.1562 20.457 19.6016 20.3047 19.9141 20C20.2344 19.6875 20.3945 19.2266 20.3945 18.6172V4.49609C20.3945 3.88672 20.2344 3.42969 19.9141 3.125C19.6016 2.8125 19.1562 2.65625 18.5781 2.65625H4.41016C3.82422 2.65625 3.375 2.8125 3.0625 3.125C2.75 3.42969 2.59375 3.88672 2.59375 4.49609V18.6172C2.59375 19.2266 2.75 19.6875 3.0625 20C3.375 20.3047 3.82422 20.457 4.41016 20.457ZM6.07422 11.5391C6.07422 11.2422 6.16406 11.0039 6.34375 10.8242C6.53125 10.6367 6.77734 10.543 7.08203 10.543H10.5273V7.09766C10.5273 6.80078 10.6172 6.55859 10.7969 6.37109C10.9766 6.18359 11.207 6.08984 11.4883 6.08984C11.7852 6.08984 12.0234 6.18359 12.2031 6.37109C12.3906 6.55078 12.4844 6.79297 12.4844 7.09766V10.543H15.9414C16.2383 10.543 16.4766 10.6367 16.6562 10.8242C16.8438 11.0039 16.9375 11.2422 16.9375 11.5391C16.9375 11.8203 16.8438 12.0508 16.6562 12.2305C16.4766 12.4102 16.2383 12.5 15.9414 12.5H12.4844V15.957C12.4844 16.2539 12.3906 16.4961 12.2031 16.6836C12.0234 16.8633 11.7852 16.9531 11.4883 16.9531C11.207 16.9531 10.9766 16.8633 10.7969 16.6836C10.6172 16.4961 10.5273 16.2539 10.5273 15.957V12.5H7.08203C6.78516 12.5 6.54297 12.4102 6.35547 12.2305C6.16797 12.0508 6.07422 11.8203 6.07422 11.5391Z" fill="black"/>
</svg>
